<?xml version="1.0" encoding="utf-8"?>
<!-- Generator: Adobe Illustrator 23.0.1, SVG Export Plug-In . SVG Version: 6.00 Build 0)  -->
<svg version="1.1" id="Layer_1" xmlns="http://www.w3.org/2000/svg" xmlns:xlink="http://www.w3.org/1999/xlink" x="0px" y="0px"
	 viewBox="0 0 146.99 43.8" style="enable-background:new 0 0 146.99 43.8;" xml:space="preserve">
<style type="text/css">
	.st0{fill:none;}
	.st1{fill:#193F70;}
	.st2{fill:#2C5980;}
	.st3{fill:#387EA8;}
	.st4{fill:#1EA6BF;}
	.st5{fill:#FFFFFF;}
	.st6{fill:#434444;}
</style>
<rect x="211" y="117.84" class="st0" width="10" height="10"/>
<rect x="12.33" y="117.84" class="st0" width="9.67" height="10"/>
<rect x="52" y="107.84" class="st0" width="10" height="10"/>
<g>
	<g>
		<g>
			<polygon class="st1" points="21.76,16.96 21.76,12.27 16.83,12.27 16.83,12.27 11.91,12.27 11.91,16.96 6.98,16.96 6.98,21.66 
				6.98,26.36 6.98,31.05 6.98,35.75 11.91,35.75 11.91,31.05 16.83,31.05 16.83,26.36 21.76,26.36 21.76,21.66 21.76,21.66 
				26.69,21.66 26.69,16.96 			"/>
			<rect x="11.09" y="6.82" class="st1" width="4.93" height="4.7"/>
			<rect x="8.11" y="8.51" class="st1" width="2.31" height="2.2"/>
			<rect x="5.12" y="7.83" class="st1" width="2.28" height="2.18"/>
			<rect x="4.14" y="4.38" class="st1" width="1.17" height="1.12"/>
			<polygon class="st1" points="31.61,12.27 31.61,7.57 26.8,7.57 26.69,7.57 21.76,7.57 21.76,12.27 26.69,12.27 26.69,16.96 
				31.61,16.96 31.62,16.96 36.54,16.96 36.54,12.27 			"/>
		</g>
		<g>
			<rect x="16.83" y="35.75" class="st2" width="4.93" height="4.7"/>
			<polygon class="st2" points="26.69,31.05 21.76,31.05 21.76,35.75 26.69,35.75 31.61,35.75 31.61,31.05 			"/>
			<rect x="6.98" y="35.75" class="st2" width="4.93" height="4.7"/>
			<rect x="11.91" y="31.05" class="st2" width="4.93" height="4.7"/>
			<rect x="16.83" y="26.36" class="st2" width="4.93" height="4.7"/>
			<polygon class="st2" points="26.69,16.96 26.69,21.66 21.76,21.66 21.76,26.36 26.69,26.36 31.61,26.36 31.61,21.76 31.61,21.66 
				31.61,16.96 			"/>
			<rect x="36.54" y="7.57" class="st2" width="4.93" height="4.7"/>
			<rect x="6.17" y="11.52" class="st2" width="4.93" height="4.7"/>
			<rect x="16.83" y="7.57" class="st2" width="4.93" height="4.7"/>
			<rect x="21.76" y="12.27" class="st2" width="4.93" height="4.7"/>
			<rect x="5.36" y="5.5" class="st2" width="1.65" height="1.57"/>
		</g>
		<g>
			<rect x="31.61" y="31.05" class="st3" width="4.93" height="4.7"/>
			<rect x="16.83" y="31.05" class="st3" width="4.93" height="4.7"/>
			<polygon class="st3" points="26.69,35.75 21.76,35.75 21.76,40.45 26.69,40.45 31.61,40.45 31.61,35.75 			"/>
			<rect x="11.91" y="35.75" class="st3" width="4.93" height="4.7"/>
			<polygon class="st3" points="36.54,21.66 36.54,21.66 31.61,21.66 31.61,26.36 36.54,26.36 36.54,31.05 41.47,31.05 41.47,26.36 
				41.47,21.66 			"/>
			<polygon class="st3" points="26.69,26.36 21.76,26.36 21.76,31.05 26.69,31.05 31.61,31.05 31.61,26.36 			"/>
			<rect x="41.47" y="16.96" class="st3" width="4.93" height="4.7"/>
			<rect x="36.54" y="12.27" class="st3" width="4.93" height="4.7"/>
			<rect x="31.61" y="7.57" class="st3" width="4.93" height="4.7"/>
			<rect x="7.92" y="5.86" class="st3" width="1.97" height="1.88"/>
		</g>
		<g>
			<polygon class="st4" points="41.47,21.66 41.47,26.36 41.47,31.05 36.54,31.05 36.54,35.75 31.61,35.75 31.61,40.45 36.54,40.45 
				36.54,40.45 41.47,40.45 46.4,40.45 46.4,35.75 46.4,31.05 46.4,26.36 46.4,21.66 			"/>
			<rect x="31.61" y="26.36" class="st4" width="4.93" height="4.7"/>
			<polygon class="st4" points="36.54,16.96 36.54,16.96 31.61,16.96 31.61,21.66 36.54,21.66 36.54,21.66 41.47,21.66 41.47,16.96 
							"/>
			<polygon class="st4" points="41.47,7.57 41.47,12.27 41.47,16.96 46.4,16.96 46.4,12.27 46.4,7.57 			"/>
		</g>
		<path class="st5" d="M26.1,34.86v4.51H11.44l-3.38-3.38V24.72l3.38-3.38H26.1v4.51H13.13l-0.56,0.56v7.89l0.56,0.56H26.1z"/>
		<path class="st5" d="M45.26,35.99l-3.38,3.38H27.22v-4.51h12.96l0.56-0.56v-1.69H27.22v-7.89l3.38-3.38h14.65v4.51H32.3
			l-0.56,0.56v1.69h13.53V35.99z"/>
		<g>
			<path class="st6" d="M65.82,39.6H50.99l-3.42-3.42V24.77l3.42-3.42h14.83v4.56H52.7l-0.57,0.57v7.98l0.57,0.57h8.55v-2.28H56.7
				V28.2h9.12V39.6z"/>
			<path class="st6" d="M71.52,34.47v5.13h-4.56V28.2l5.99-5.99l0.86-0.86h4.56l0.86,0.86l5.99,5.99V39.6h-4.56v-5.13H71.52z
				 M80.65,29.91l-4.56-4.56l-4.56,4.56H80.65z"/>
			<path class="st6" d="M97.76,39.6H93.2V25.92h-2.28V39.6h-4.56V21.35h14.83l3.42,3.42V39.6h-4.56V26.49l-0.57-0.57h-1.71V39.6z"/>
			<path class="st6" d="M119.43,28.2v4.56h-9.13v2.28h13.69v4.56h-18.25V21.35h18.25v4.56h-13.69v2.28H119.43z"/>
			<path class="st6" d="M143.38,36.18l-3.42,3.42h-14.83v-4.56h13.12l0.57-0.57v-1.71h-13.69v-7.98l3.42-3.42h14.83v4.56h-13.12
				l-0.57,0.57v1.71h13.69V36.18z"/>
		</g>
	</g>
</g>
</svg>
