<svg xmlns="http://www.w3.org/2000/svg" width="231" height="73.496"><defs><linearGradient id="a" x1=".5" x2=".5" y2="1" gradientUnits="objectBoundingBox"><stop offset="0" stop-color="#018da9"/><stop offset="1" stop-color="#45c1cb"/></linearGradient><linearGradient id="b" x1="-.451" y1="-9.364" x2="-.45" y2="-9.364" gradientUnits="objectBoundingBox"><stop offset="0" stop-color="#018da9"/><stop offset=".227" stop-color="#199fb5"/><stop offset=".513" stop-color="#31b2c1"/><stop offset=".778" stop-color="#3fbdc8"/><stop offset="1" stop-color="#45c1cb"/></linearGradient></defs><path d="M318.08 276.046h-1.252V289.3h2.5v-15.757h-1.248v2.5z" transform="translate(-228.735 -273.543)" fill="url(#a)"/><path fill="#0590ab" d="M88.094 1.252h1.252v1.252h-1.252z"/><path d="M103.647 276.046h68.489v-1.252h1.252v-1.252h-72.244V289.3h2.5z" transform="translate(-84.042 -273.543)" fill="url(#a)"/><path d="M172.136 462.218h-68.489v-13.252h-2.5v15.755h73.5v-15.755h-2.5z" transform="translate(-84.042 -391.226)" fill="url(#b)"/><path fill="#018da9" d="M76.415 54.111h3.605v3.605h-3.605z"/><path d="M40.284 46.344l6.934-4.019a7.368 7.368 0 007.386 4.874c3.818 0 4.773-1.508 4.773-2.864 0-2.161-2.01-3.015-7.286-4.472-5.225-1.457-10.35-3.97-10.35-10.7 0-6.783 5.728-10.7 11.807-10.7a13.642 13.642 0 0112.863 7.938l-6.783 3.969c-1.206-2.512-2.864-4.07-6.08-4.07-2.512 0-3.768 1.256-3.768 2.663 0 1.608.854 2.713 6.33 4.371 5.326 1.608 11.305 3.467 11.305 10.9 0 6.783-5.426 10.8-13.064 10.8-7.385.001-12.108-3.514-14.067-8.69z" fill="#1a315b"/><path d="M392.1 361.405h-13.067l-1.759 5.527h-8.793l11.958-35.171h10.25l11.958 35.171h-8.793zm-2.412-7.537l-4.12-12.913-4.12 12.913z" transform="translate(-263.387 -312.599)" fill="url(#a)"/><path d="M617.357 359.194v7.738H595.25v-35.171h21.856v7.739h-13.817v5.828h12.561v7.637h-12.561v6.23z" transform="translate(-415.514 -312.599)" fill="url(#a)"/><path d="M23.081 47.199c-6.23 0-10.25-4.17-10.25-10.451s4.02-10.451 10.25-10.451a9.093 9.093 0 018.14 4.321l6.934-4.02a17.542 17.542 0 00-15.074-8.139 18.581 18.581 0 00-10.682 3.224v5.27H7.447a18.8 18.8 0 00-2.656 9.795 17.829 17.829 0 0018.29 18.287 17.417 17.417 0 0015.074-8.139l-6.934-4.02a9.036 9.036 0 01-8.14 4.323z" fill="#1a315b"/><path d="M5.299 19.858v5.3h5.3v-5.3zM0 25.157h3.533v3.533H0z" fill="#1a315b"/><path d="M280.308 345.9v7.034h9.4c-1.256 3.366-4.321 5.427-8.994 5.427-6.833 0-11.054-4.371-11.054-10.35 0-6.18 4.422-10.551 10.35-10.551 3.97 0 7.135 1.809 8.592 4.12l6.833-3.919a17.992 17.992 0 00-15.375-8.039 18.347 18.347 0 00-15.414 28.441h5.271v5.137a19.785 19.785 0 0010.7 3c9.848 0 17.334-6.532 17.334-17.284V345.9z" transform="translate(-191.696 -311.165)" fill="url(#a)"/><path d="M74.333 48.702h-3.325v5.408h5.408v-5.408zM82.724 57.716h2.704v2.704h-2.704z" fill="#45c1cb"/><path d="M688.311 331.154a14.672 14.672 0 00-6.745-1.53c-6.08 0-11.807 3.919-11.807 10.7 0 6.733 5.125 9.245 10.35 10.7 5.276 1.457 7.285 2.311 7.285 4.472 0 1.356-.954 2.864-4.773 2.864a7.367 7.367 0 01-7.386-4.874l-6.934 4.019c1.96 5.175 6.683 8.692 14.068 8.692 7.637 0 13.063-4.02 13.063-10.8 0-7.436-5.979-9.3-11.3-10.9-5.477-1.658-6.331-2.764-6.331-4.371 0-1.407 1.256-2.663 3.768-2.663 3.215 0 4.874 1.558 6.08 4.07l6.783-3.969a16.642 16.642 0 00-.822-1.456h-5.3z" transform="translate(-464.521 -311.165)" fill="url(#a)"/><path d="M225.593 17.732v5.408h5.408v-5.408z" fill="#018da9"/><path d="M512.612 331.761h-8.039l-9.546 15.626-9.546-15.626h-8.039v35.171h8.039v-20.45l9.094 14.923h.9l9.094-14.923v12.388h8.039z" transform="translate(-336.482 -312.599)" fill="url(#a)"/><path fill="#45c1cb" d="M165.308 48.075h1.31v5.408h-1.31zM166.618 48.075h1.473v5.408h-1.473zM168.091 48.075h2.624v5.408h-2.624z"/><path fill="#018da9" d="M161.703 55.285h3.605v3.605h-3.605z"/></svg>